# xmcd
#
# Track frame offsets:
#	150
#	13399
#	28883
#	45416
#	61034
#	79316
#	93383
#	108969
#	122673
#	134715
#	147898
#	162878
#
# Disc length: 2345 seconds
#
# Revision: 0
# Processed by: cddbd v1.5.1PL2 Copyright (c) Steve Scherf et al.
# Submitted via: dBpowerAMP V4.0
#
DISCID=a109270c
DTITLE=Country Expressen - Country Forever
DYEAR=1900
DGENRE=Country
TTITLE0=Under your spell again
TTITLE1=Daddy Frank
TTITLE2=Never again, again
TTITLE3=Blue moon of Kentucky
TTITLE4=Fightingside of me
TTITLE5=Crystal chandelter
TTITLE6=San Quiten
TTITLE7=Evey little thing
TTITLE8=Paper roses
TTITLE9=San Antonio stroll
TTITLE10=Good girls are gonna go bad
TTITLE11=My own peculter way
EXTD=
EXTT0=
EXTT1=
EXTT2=
EXTT3=
EXTT4=
EXTT5=
EXTT6=
EXTT7=
EXTT8=
EXTT9=
EXTT10=
EXTT11=
PLAYORDER=
